<svg width="189" height="18" fill="none" xmlns="http://www.w3.org/2000/svg"><path d="M38.163 15.034c-.367 0-.643-.057-.827-.17a.788.788 0 0 1-.36-.467 3.143 3.143 0 0 1-.064-.657V1.505c0-.226.022-.43.064-.614a.788.788 0 0 1 .36-.467c.184-.127.474-.19.87-.19.297 0 .516.02.657.063a.772.772 0 0 1 .36.148c.085.057.17.135.255.234l5.174 7.23h-.488L49.36.657a1.19 1.19 0 0 1 .297-.254c.099-.057.226-.1.382-.127.155-.029.36-.043.615-.043.381 0 .664.064.848.191a.706.706 0 0 1 .339.467c.056.197.085.417.085.657v12.235c0 .212-.029.417-.085.614a.706.706 0 0 1-.34.467c-.183.113-.473.17-.869.17-.381 0-.664-.064-.848-.191a.788.788 0 0 1-.36-.467 3.033 3.033 0 0 1-.064-.636V4.644L45.5 10.22a4.961 4.961 0 0 1-.19.233 1.293 1.293 0 0 1-.34.234c-.14.07-.331.106-.572.106-.226 0-.41-.036-.551-.106a1.294 1.294 0 0 1-.34-.233l-.211-.255-3.838-5.555v9.139c0 .212-.029.417-.085.614a.706.706 0 0 1-.34.467c-.183.113-.473.17-.869.17Zm19.154 0c-.396 0-.685-.057-.87-.17a.706.706 0 0 1-.339-.467 3.344 3.344 0 0 1-.063-.657V1.505c0-.226.021-.43.063-.614a.788.788 0 0 1 .36-.467c.185-.127.474-.19.87-.19h4.495c.623 0 1.23.105 1.824.317.594.212 1.124.53 1.59.954a4.37 4.37 0 0 1 1.124 1.57c.283.622.424 1.35.424 2.184 0 .82-.141 1.54-.424 2.162a4.413 4.413 0 0 1-1.124 1.548 4.914 4.914 0 0 1-1.611.954 5.266 5.266 0 0 1-1.824.319h-3.201v3.52c0 .226-.029.438-.085.635a.706.706 0 0 1-.34.467c-.17.113-.459.17-.869.17Zm1.294-7.38h3.223c.438 0 .833-.084 1.187-.254a2.22 2.22 0 0 0 .89-.806c.227-.367.34-.827.34-1.378 0-.495-.106-.919-.318-1.272a2.044 2.044 0 0 0-.849-.848c-.353-.198-.777-.297-1.272-.297h-3.201v4.856Zm23.379 5.598c.142.269.213.51.213.721a.727.727 0 0 1-.17.53c-.127.142-.34.29-.636.446-.453.212-.806.268-1.06.17-.24-.1-.467-.375-.679-.828L74.93 4.304l-4.708 9.987c-.212.439-.445.7-.7.785-.254.099-.607.05-1.06-.149-.282-.14-.494-.29-.636-.445a.759.759 0 0 1-.17-.551c.029-.226.12-.495.276-.806L73.763.975c.113-.226.276-.402.488-.53.226-.141.46-.212.7-.212.17 0 .325.029.466.085.142.057.269.141.382.255.127.113.233.254.318.424l5.873 12.255Zm-10.835-2.056 1.018-2.184h5.534l1.018 2.184h-7.57Zm18.703 4.05a6.087 6.087 0 0 1-1.739-.234 5.96 5.96 0 0 1-1.356-.593 6.282 6.282 0 0 1-.976-.742 3.474 3.474 0 0 1-.594-.7c-.183-.255-.303-.48-.36-.679a.8.8 0 0 1 .042-.572c.1-.198.276-.403.53-.615.255-.226.488-.34.7-.34a.965.965 0 0 1 .636.191c.212.142.417.34.615.594.34.453.721.778 1.145.976.424.183.848.275 1.272.275.552 0 1.032-.07 1.442-.212.41-.155.728-.382.954-.678.24-.297.36-.679.36-1.145 0-.382-.12-.693-.36-.933-.226-.255-.53-.467-.911-.637a8.537 8.537 0 0 0-1.294-.487c-.466-.156-.94-.325-1.42-.51a9.677 9.677 0 0 1-1.018-.402c-.34-.17-.657-.36-.954-.572a4.212 4.212 0 0 1-.764-.743 3.81 3.81 0 0 1-.509-1.017c-.127-.382-.19-.827-.19-1.336 0-.806.198-1.513.593-2.12.396-.623.947-1.11 1.654-1.464C88.063.184 88.87 0 89.773 0c.58 0 1.096.057 1.548.17.467.099.863.233 1.188.403.339.155.615.318.827.487.226.156.388.29.487.403.326.325.502.6.53.827.043.212-.084.502-.381.87-.297.381-.587.593-.87.635-.268.029-.572-.084-.911-.339a3.478 3.478 0 0 0-.679-.572 2.333 2.333 0 0 0-.763-.34 4.02 4.02 0 0 0-.997-.106 2.73 2.73 0 0 0-.827.128c-.254.07-.473.183-.657.339a1.622 1.622 0 0 0-.445.53 1.685 1.685 0 0 0-.149.721c0 .367.1.671.297.912.212.226.495.417.848.572.354.142.75.276 1.188.403.438.127.883.262 1.335.403.467.155.926.34 1.379.551.452.212.855.48 1.208.806.354.311.636.707.849 1.187.212.467.318 1.04.318 1.718 0 .777-.149 1.456-.446 2.035-.297.58-.7 1.054-1.208 1.421a5.215 5.215 0 0 1-1.697.806 6.627 6.627 0 0 1-1.887.276Zm13.355 0a6.085 6.085 0 0 1-1.739-.234 5.962 5.962 0 0 1-1.357-.593 6.274 6.274 0 0 1-.976-.742 3.474 3.474 0 0 1-.593-.7c-.184-.255-.304-.48-.36-.679a.8.8 0 0 1 .042-.572c.099-.198.275-.403.53-.615.254-.226.487-.34.7-.34a.967.967 0 0 1 .636.191c.212.142.417.34.614.594.34.453.721.778 1.145.976.425.183.849.275 1.273.275.551 0 1.032-.07 1.442-.212.41-.155.728-.382.954-.678.24-.297.36-.679.36-1.145 0-.382-.12-.693-.36-.933-.226-.255-.53-.467-.912-.637a8.57 8.57 0 0 0-1.293-.487 33.67 33.67 0 0 1-1.421-.51 10.136 10.136 0 0 1-1.018-.402 7.136 7.136 0 0 1-.954-.572 4.212 4.212 0 0 1-.763-.743 3.81 3.81 0 0 1-.51-1.017c-.127-.382-.19-.827-.19-1.336 0-.806.198-1.513.594-2.12.395-.623.947-1.11 1.653-1.464.707-.367 1.513-.551 2.418-.551.579 0 1.095.057 1.548.17.466.099.862.233 1.187.403.339.155.615.318.827.487.226.156.389.29.488.403.325.325.501.6.53.827.042.212-.085.502-.382.87-.297.381-.587.593-.869.635-.269.029-.573-.084-.912-.339a3.45 3.45 0 0 0-.679-.572 2.327 2.327 0 0 0-.763-.34 3.987 3.987 0 0 0-.997-.106 2.72 2.72 0 0 0-.826.128c-.255.07-.474.183-.658.339a1.618 1.618 0 0 0-.445.53 1.685 1.685 0 0 0-.148.721c0 .367.098.671.296.912.212.226.495.417.849.572.353.142.749.276 1.187.403.438.127.883.262 1.336.403.466.155.926.34 1.378.551.452.212.855.48 1.209.806.353.311.636.707.848 1.187.212.467.318 1.04.318 1.718 0 .777-.149 1.456-.445 2.035a3.93 3.93 0 0 1-1.209 1.421 5.214 5.214 0 0 1-1.696.806 6.627 6.627 0 0 1-1.887.276Zm9.982-.191c-.395 0-.685-.064-.869-.191a.704.704 0 0 1-.339-.467 3.102 3.102 0 0 1-.064-.657V1.505c0-.226.021-.438.064-.636a.807.807 0 0 1 .339-.466c.184-.113.481-.17.891-.17.395 0 .678.057.848.17a.704.704 0 0 1 .339.466c.057.198.085.417.085.658V13.76c0 .24-.028.46-.085.658a.698.698 0 0 1-.339.445c-.184.127-.474.19-.87.19Zm9.81.191a6.09 6.09 0 0 1-1.739-.234 5.962 5.962 0 0 1-1.357-.593 6.282 6.282 0 0 1-.975-.742 3.457 3.457 0 0 1-.594-.7c-.184-.255-.304-.48-.36-.679a.797.797 0 0 1 .042-.572c.099-.198.276-.403.53-.615.255-.226.488-.34.7-.34a.965.965 0 0 1 .636.191c.212.142.417.34.615.594.339.453.721.778 1.145.976.424.183.848.275 1.272.275.551 0 1.032-.07 1.442-.212.41-.155.728-.382.954-.678.241-.297.361-.679.361-1.145 0-.382-.12-.693-.361-.933-.226-.255-.53-.467-.912-.637a8.49 8.49 0 0 0-1.293-.487 34.18 34.18 0 0 1-1.421-.51 10.12 10.12 0 0 1-1.017-.402c-.34-.17-.658-.36-.955-.572a4.226 4.226 0 0 1-.763-.743 3.807 3.807 0 0 1-.509-1.017 4.235 4.235 0 0 1-.191-1.336c0-.806.198-1.513.594-2.12.396-.623.947-1.11 1.654-1.464C121.21.184 122.015 0 122.92 0c.58 0 1.096.057 1.548.17a4.64 4.64 0 0 1 1.187.403c.34.155.615.318.827.487.227.156.389.29.488.403.325.325.502.6.53.827.043.212-.085.502-.381.87-.297.381-.587.593-.87.635-.268.029-.572-.084-.912-.339a3.476 3.476 0 0 0-.678-.572 2.337 2.337 0 0 0-.763-.34 3.987 3.987 0 0 0-.997-.106 2.73 2.73 0 0 0-.827.128c-.254.07-.474.183-.657.339a1.633 1.633 0 0 0-.446.53 1.685 1.685 0 0 0-.148.721c0 .367.099.671.297.912.212.226.495.417.848.572.353.142.749.276 1.187.403.439.127.884.262 1.336.403.467.155.926.34 1.379.551.452.212.855.48 1.208.806.354.311.636.707.848 1.187.212.467.318 1.04.318 1.718 0 .777-.148 1.456-.445 2.035a3.93 3.93 0 0 1-1.209 1.421 5.204 5.204 0 0 1-1.696.806 6.627 6.627 0 0 1-1.887.276ZM141.728.212c.212 0 .396.021.551.064.17.042.304.148.403.318.099.155.149.41.149.763 0 .353-.05.615-.149.785a.652.652 0 0 1-.403.296 3.49 3.49 0 0 1-.572.043h-3.902v11.302c0 .24-.028.459-.085.657a.698.698 0 0 1-.339.445c-.169.113-.459.17-.869.17-.382 0-.665-.064-.848-.191a.703.703 0 0 1-.34-.445 3.172 3.172 0 0 1-.063-.658V2.481h-3.944c-.198 0-.382-.021-.551-.064a.736.736 0 0 1-.424-.297c-.099-.155-.149-.41-.149-.763 0-.353.05-.608.149-.763a.635.635 0 0 1 .402-.318 2.51 2.51 0 0 1 .573-.064h10.411Zm14.487 13.04c.141.269.212.51.212.721a.73.73 0 0 1-.17.53c-.127.142-.339.29-.636.446-.452.212-.806.268-1.06.17-.24-.1-.467-.375-.679-.828l-4.728-9.987-4.707 9.987c-.212.439-.446.7-.7.785-.255.099-.608.05-1.06-.149-.283-.14-.495-.29-.636-.445a.757.757 0 0 1-.17-.551c.028-.226.12-.495.276-.806l5.831-12.15c.113-.226.275-.402.487-.53.226-.141.46-.212.7-.212.17 0 .325.029.467.085.141.057.268.141.381.255.127.113.233.254.318.424l5.874 12.255Zm-10.835-2.056 1.017-2.184h5.535l1.017 2.184h-7.569Zm15.331 3.838c-.382 0-.664-.064-.848-.191a.807.807 0 0 1-.339-.467 2.993 2.993 0 0 1-.064-.636V1.442c0-.212.028-.41.085-.594a.79.79 0 0 1 .36-.445c.198-.113.488-.17.87-.17.424 0 .714.05.869.149.17.084.325.212.467.381l7.082 9.902V1.442c0-.212.028-.41.084-.594a.791.791 0 0 1 .361-.445c.184-.113.466-.17.848-.17.396 0 .679.064.848.191a.708.708 0 0 1 .34.467c.056.197.084.417.084.657V13.76c0 .227-.035.439-.106.636a.771.771 0 0 1-.381.446c-.184.127-.474.19-.87.19-.311 0-.558-.028-.742-.084a1 1 0 0 1-.466-.36l-7.188-9.882v9.054c0 .227-.029.439-.085.636a.703.703 0 0 1-.34.446c-.183.127-.473.19-.869.19ZM186.947.212c.212 0 .396.021.551.064.17.042.304.148.403.318.099.155.148.41.148.763 0 .353-.049.615-.148.785a.652.652 0 0 1-.403.296 3.49 3.49 0 0 1-.572.043h-3.902v11.302c0 .24-.028.459-.085.657a.698.698 0 0 1-.339.445c-.17.113-.459.17-.869.17-.382 0-.665-.064-.848-.191a.703.703 0 0 1-.34-.445 3.172 3.172 0 0 1-.063-.658V2.481h-3.944c-.198 0-.382-.021-.551-.064a.74.74 0 0 1-.425-.297c-.099-.155-.148-.41-.148-.763 0-.353.049-.608.148-.763a.64.64 0 0 1 .403-.318 2.51 2.51 0 0 1 .573-.064h10.411Z" fill="#212121"/><path d="M27.534 10.976a5.227 5.227 0 0 1-3.46 1.084 6.885 6.885 0 0 1-2.748-1.03 10.78 10.78 0 0 1-.999.947c.256.15.518.292.78.43v-.001a7.123 7.123 0 0 0 3.592.959 6.787 6.787 0 0 0 3.515-1.269c.706-.476.032-1.602-.68-1.12Zm-9.21-2.135a6.526 6.526 0 0 1-1.119.931 159.659 159.659 0 0 1-2.237-1.711c-1.814-1.41-3.843-2.964-6.25-3.015a4.361 4.361 0 0 0-2.946.913 3.425 3.425 0 0 0-.398.403 4.235 4.235 0 0 0-.632.988 7.79 7.79 0 0 0-.467 1.44c-.038.158-.07.31-.101.46l-.165.83c-.467 2.417-.815 4.872-1.226 7.3-.145.869-1.466.498-1.32-.364l.846-5.035c.17-.988.297-2.007.506-3.001.088-.428.196-.856.328-1.259l.083-.245a6.09 6.09 0 0 1 .499-1.108c.19-.336.417-.65.676-.938a5.299 5.299 0 0 1 3.52-1.724c2.32-.226 4.475.818 6.32 2.121 1.39.982 2.718 2.026 4.083 3.014Z" fill="#11AE88"/><path d="M2.111 4.708c-.628-.604-1.572.315-.968.932.39.393.786.792 1.182 1.21a6.9 6.9 0 0 1 .629-1.246l-.843-.896Zm23.164-3.666a65.118 65.118 0 0 1-3.288 7.114c-.271.474-.568.933-.889 1.375a10.95 10.95 0 0 1-.724.885 9.72 9.72 0 0 1-1.033.986 8.1 8.1 0 0 1-1.002.64l-.359.2a9.401 9.401 0 0 1-6.035.76 14.637 14.637 0 0 1-6.652-3.34l.031-.157a9.77 9.77 0 0 1 .353-1.312c2.734 2.355 5.928 4.182 9.639 3.529a6.965 6.965 0 0 0 2.829-1.193c.39-.284.754-.6 1.09-.948.263-.275.512-.564.742-.867.307-.4.59-.82.845-1.255a65.236 65.236 0 0 0 3.282-7.1c.34-.805 1.524-.114 1.171.683Z" fill="#2A84EE"/></svg>