<svg width="22" height="22" fill="none" xmlns="http://www.w3.org/2000/svg"><path d="M11.244.205c-2.482 0-4.713 1.002-6.33 2.449C3.299 4.1 2.27 6 2.27 7.868v.437c-1 .21-1.772 1.057-1.772 2.092v5.262c0 1.195 1.043 2.09 2.247 2.102l1.426.013a9.65 9.65 0 0 0 4.226 2.745c.233.73.89 1.276 1.682 1.276h2.284c.991 0 1.773-.854 1.773-1.856 0-1.002-.782-1.855-1.773-1.855h-2.284c-.813 0-1.484.573-1.7 1.331a8.66 8.66 0 0 1-3.38-2.27v-6.748c0-1.007-.73-1.835-1.69-2.072v-.457c0-1.13.503-2.373 1.382-3.472.072.122.157.234.256.326.434.405 1.124.596 1.717.254a.522.522 0 0 0 .029-.019c1.41-.943 2.842-1.845 4.552-1.845.47 0 .918.067 1.35.185 1.138.31 2.181.977 3.203 1.66l.028.019c.593.342 1.282.15 1.715-.255.1-.093.185-.204.257-.326.88 1.099 1.382 2.343 1.382 3.473v.46c-.955.24-1.68 1.066-1.68 2.07v6.9a.481.481 0 0 0 .485.48l1.77-.017C20.958 17.75 22 16.854 22 15.659v-5.262c0-1.039-.776-1.89-1.782-2.095v-.434c0-1.868-1.026-3.768-2.643-5.215C15.96 1.207 13.727.205 11.245.205Zm0 1.038c2.202 0 4.2.897 5.639 2.185l.053.05c.115.216.048.343-.103.484-.156.146-.361.186-.487.115-1.022-.684-2.146-1.42-3.478-1.782a6.185 6.185 0 0 0-1.675-.22c-2.033.02-3.645 1.065-5.048 2.003-.125.073-.331.032-.488-.114-.151-.142-.218-.269-.103-.485l.053-.05c1.44-1.288 3.436-2.184 5.637-2.184Zm-2.19 7.76v.001a1.955 1.955 0 0 0-2.02 1.95.519.519 0 1 0 1.037 0 .91.91 0 0 1 .602-.859.909.909 0 0 1 1.011.272.91.91 0 0 1 .092 1.044c-.15.258-.695.584-1.279.918-.291.167-.588.343-.843.588-.256.245-.479.603-.479 1.026a.52.52 0 0 0 .52.52h2.572a.52.52 0 0 0 0-1.04H8.728c.1-.065.163-.123.284-.193.533-.305 1.233-.6 1.635-1.255.01-.015.02-.03.028-.045.009-.015.016-.03.024-.046a1.948 1.948 0 0 0-1.646-2.88Zm-6.305.213c.739 0 1.29.535 1.29 1.181v6.415L2.753 16.8c-.757-.007-1.293-.495-1.293-1.141v-5.262c0-.646.55-1.181 1.289-1.181Zm17.002 0c.738 0 1.289.535 1.289 1.181v5.262c0 .646-.538 1.134-1.295 1.14l-1.284.013v-6.415c0-.646.551-1.181 1.29-1.181Zm-7.821.004a.52.52 0 0 0-.511.527v3.006a.519.519 0 0 0 .519.52h1.737v.663a.52.52 0 1 0 1.038 0v-.663h.234a.52.52 0 0 0 0-1.039h-.234V9.747a.52.52 0 1 0-1.038 0v2.487h-1.218V9.747a.521.521 0 0 0-.527-.527Zm-1.85 9.902h2.283c.398 0 .735.338.735.817 0 .479-.337.818-.736.818H10.08c-.398 0-.735-.34-.735-.818 0-.479.337-.817.735-.817Z" fill="#000"/><path d="M11.244.205c-2.482 0-4.713 1.002-6.33 2.449C3.299 4.1 2.27 6 2.27 7.868v.437c-1 .21-1.772 1.057-1.772 2.092v5.262c0 1.195 1.043 2.09 2.247 2.102l1.426.013a9.65 9.65 0 0 0 4.226 2.745c.233.73.89 1.276 1.682 1.276h2.284c.991 0 1.773-.854 1.773-1.856 0-1.002-.782-1.855-1.773-1.855h-2.284c-.813 0-1.484.573-1.7 1.331a8.66 8.66 0 0 1-3.38-2.27v-6.748c0-1.007-.73-1.835-1.69-2.072v-.457c0-1.13.503-2.373 1.382-3.472.072.122.157.234.256.326.434.405 1.124.596 1.717.254a.522.522 0 0 0 .029-.019c1.41-.943 2.842-1.845 4.552-1.845.47 0 .918.067 1.35.185 1.138.31 2.181.977 3.203 1.66l.028.019c.593.342 1.282.15 1.715-.255.1-.093.185-.204.257-.326.88 1.099 1.382 2.343 1.382 3.473v.46c-.955.24-1.68 1.066-1.68 2.07v6.9a.481.481 0 0 0 .485.48l1.77-.017C20.958 17.75 22 16.854 22 15.659v-5.262c0-1.039-.776-1.89-1.782-2.095v-.434c0-1.868-1.026-3.768-2.643-5.215C15.96 1.207 13.727.205 11.245.205Zm0 1.038c2.202 0 4.2.897 5.639 2.185l.053.05c.115.216.048.343-.103.484-.156.146-.361.186-.487.115-1.022-.684-2.146-1.42-3.478-1.782a6.185 6.185 0 0 0-1.675-.22c-2.033.02-3.645 1.065-5.048 2.003-.125.073-.331.032-.488-.114-.151-.142-.218-.269-.103-.485l.053-.05c1.44-1.288 3.436-2.184 5.637-2.184Zm-2.19 7.76v.001a1.955 1.955 0 0 0-2.02 1.95.519.519 0 1 0 1.037 0 .91.91 0 0 1 .602-.859.909.909 0 0 1 1.011.272.91.91 0 0 1 .092 1.044c-.15.258-.695.584-1.279.918-.291.167-.588.343-.843.588-.256.245-.479.603-.479 1.026a.52.52 0 0 0 .52.52h2.572a.52.52 0 0 0 0-1.04H8.728c.1-.065.163-.123.284-.193.533-.305 1.233-.6 1.635-1.255.01-.015.02-.03.028-.045.009-.015.016-.03.024-.046a1.948 1.948 0 0 0-1.646-2.88Zm-6.305.213c.739 0 1.29.535 1.29 1.181v6.415L2.753 16.8c-.757-.007-1.293-.495-1.293-1.141v-5.262c0-.646.55-1.181 1.289-1.181Zm17.002 0c.738 0 1.289.535 1.289 1.181v5.262c0 .646-.538 1.134-1.295 1.14l-1.284.013v-6.415c0-.646.551-1.181 1.29-1.181Zm-7.821.004a.52.52 0 0 0-.511.527v3.006a.519.519 0 0 0 .519.52h1.737v.663a.52.52 0 1 0 1.038 0v-.663h.234a.52.52 0 0 0 0-1.039h-.234V9.747a.52.52 0 1 0-1.038 0v2.487h-1.218V9.747a.521.521 0 0 0-.527-.527Zm-1.85 9.902h2.283c.398 0 .735.338.735.817 0 .479-.337.818-.736.818H10.08c-.398 0-.735-.34-.735-.818 0-.479.337-.817.735-.817Z" fill="url(#a)"/><defs><linearGradient id="a" x1="1.753" y1=".205" x2="37.9" y2="1.125" gradientUnits="userSpaceOnUse"><stop stop-color="#11AE88"/><stop offset="1" stop-color="#2A84EE"/></linearGradient></defs></svg>