<svg width="19" height="25" fill="none" xmlns="http://www.w3.org/2000/svg"><path d="M18.964 15.341a.695.695 0 0 0-.664-.477h-.008l-.952.014c-.022 0-.04-.01-.051-.037l-.3-.903a.692.692 0 0 0-.66-.477h-.009a.658.658 0 0 0-.206.035c-.899-1.88-2.801-3.117-4.86-3.117h-.328c1.766-.924 2.973-2.759 2.973-4.869C13.896 2.47 11.399 0 8.327 0S2.762 2.47 2.762 5.51c0 2.11 1.206 3.945 2.972 4.87h-.331C2.424 10.38 0 12.856 0 15.901v3.202c0 .545.423.987.945.987h1.621v.426c0 .376.308.68.688.68h.096v.824c0 .114.062.22.16.276l4.66 2.66s.016.006.024.011c.008.006.018.008.026.01a.31.31 0 0 0 .11.022.31.31 0 0 0 .11-.021c.008-.003.018-.008.027-.01a.094.094 0 0 0 .024-.011l4.661-2.661a.32.32 0 0 0 .16-.276v-.823h.057c.38 0 .688-.305.688-.68v-.427h1.661c.52 0 .942-.442.942-.988v-1.019l.495.355a.7.7 0 0 0 1.073-.787l-.302-.9a.059.059 0 0 1 .019-.069l.767-.566a.688.688 0 0 0 .252-.779v.003ZM3.406 5.507c0-2.685 2.208-4.869 4.921-4.869 2.714 0 4.924 2.184 4.924 4.87 0 2.684-2.205 4.866-4.918 4.869h-.011c-2.71-.003-4.916-2.188-4.916-4.87ZM3.208 20.52v-1.493c0-.021.022-.043.043-.043h.814c.024 0 .042.019.042.043v1.493a.042.042 0 0 1-.042.042H3.25c-.021 0-.043-.02-.043-.042Zm7.45-2.857L6.644 15.37l1.683-.961 4.014 2.293-1.686.961h.003ZM6 15.738l4.014 2.293-1.683.961L4.319 16.7l1.683-.96h-.003Zm-2.004 5.463h.072c.38 0 .688-.305.688-.681v-1.493a.684.684 0 0 0-.688-.68h-.072v-1.092l4.011 2.293v4.586l-4.01-2.293v-.64Zm8.673.638-4.014 2.293v-4.586l1.683-.962v1.07c0 .178.145.32.324.32a.321.321 0 0 0 .324-.32v-1.438l1.685-.96v1.09h-.112a.684.684 0 0 0-.688.68v1.494c0 .376.308.68.688.68h.112v.639h-.002Zm.744-1.319c0 .021-.022.042-.043.042h-.814a.042.042 0 0 1-.043-.042v-1.493c0-.024.02-.043.043-.043h.814c.021 0 .043.021.043.043v1.493Zm2.306-1.067h-1.662v-.426a.684.684 0 0 0-.687-.68h-.056v-1.645l-.003-.024c0-.01 0-.018-.003-.029a.306.306 0 0 0-.035-.106.314.314 0 0 0-.075-.082l-.024-.018-.021-.016-4.661-2.661a.322.322 0 0 0-.324 0l-4.659 2.66-.019.017a.303.303 0 0 0-.096.1.295.295 0 0 0-.035.103l-.002.03c0 .007-.003.015-.003.023v1.645h-.096a.684.684 0 0 0-.688.68v.426H.947c-.16 0-.297-.161-.297-.35v-3.2c0-2.693 2.136-4.885 4.758-4.885h5.855c1.897 0 3.644 1.202 4.383 3l-.268.841c-.005.019-.018.04-.05.04l-.956.008a.695.695 0 0 0-.401 1.263l.778.55c.022.017.03.038.022.064l-.292.909a.68.68 0 0 0 .257.775.703.703 0 0 0 .407.133.72.72 0 0 0 .42-.14l.46-.342v.988c0 .19-.136.349-.297.349h-.008Zm2.612-3.85-.77.567a.691.691 0 0 0-.247.778l.302.9c.006.019.008.048-.021.067-.021.015-.04.015-.062 0l-.776-.554a.697.697 0 0 0-.42-.13h-.01a.709.709 0 0 0-.396.138l-.768.57c-.02.015-.04.015-.062 0-.021-.016-.027-.035-.019-.064l.292-.91a.686.686 0 0 0-.262-.774l-.776-.548c-.03-.021-.024-.05-.019-.066.005-.019.019-.04.05-.04l.956-.008a.696.696 0 0 0 .661-.487l.29-.911a.049.049 0 0 1 .05-.04c.016 0 .037.006.045.037l.3.903a.71.71 0 0 0 .672.477l.952-.013c.024 0 .043.01.051.034.008.027 0 .05-.021.066l.008.008Z" fill="#000"/><path d="M18.964 15.341a.695.695 0 0 0-.664-.477h-.008l-.952.014c-.022 0-.04-.01-.051-.037l-.3-.903a.692.692 0 0 0-.66-.477h-.009a.658.658 0 0 0-.206.035c-.899-1.88-2.801-3.117-4.86-3.117h-.328c1.766-.924 2.973-2.759 2.973-4.869C13.896 2.47 11.399 0 8.327 0S2.762 2.47 2.762 5.51c0 2.11 1.206 3.945 2.972 4.87h-.331C2.424 10.38 0 12.856 0 15.901v3.202c0 .545.423.987.945.987h1.621v.426c0 .376.308.68.688.68h.096v.824c0 .114.062.22.16.276l4.66 2.66s.016.006.024.011c.008.006.018.008.026.01a.31.31 0 0 0 .11.022.31.31 0 0 0 .11-.021c.008-.003.018-.008.027-.01a.094.094 0 0 0 .024-.011l4.661-2.661a.32.32 0 0 0 .16-.276v-.823h.057c.38 0 .688-.305.688-.68v-.427h1.661c.52 0 .942-.442.942-.988v-1.019l.495.355a.7.7 0 0 0 1.073-.787l-.302-.9a.059.059 0 0 1 .019-.069l.767-.566a.688.688 0 0 0 .252-.779v.003ZM3.406 5.507c0-2.685 2.208-4.869 4.921-4.869 2.714 0 4.924 2.184 4.924 4.87 0 2.684-2.205 4.866-4.918 4.869h-.011c-2.71-.003-4.916-2.188-4.916-4.87ZM3.208 20.52v-1.493c0-.021.022-.043.043-.043h.814c.024 0 .042.019.042.043v1.493a.042.042 0 0 1-.042.042H3.25c-.021 0-.043-.02-.043-.042Zm7.45-2.857L6.644 15.37l1.683-.961 4.014 2.293-1.686.961h.003ZM6 15.738l4.014 2.293-1.683.961L4.319 16.7l1.683-.96h-.003Zm-2.004 5.463h.072c.38 0 .688-.305.688-.681v-1.493a.684.684 0 0 0-.688-.68h-.072v-1.092l4.011 2.293v4.586l-4.01-2.293v-.64Zm8.673.638-4.014 2.293v-4.586l1.683-.962v1.07c0 .178.145.32.324.32a.321.321 0 0 0 .324-.32v-1.438l1.685-.96v1.09h-.112a.684.684 0 0 0-.688.68v1.494c0 .376.308.68.688.68h.112v.639h-.002Zm.744-1.319c0 .021-.022.042-.043.042h-.814a.042.042 0 0 1-.043-.042v-1.493c0-.024.02-.043.043-.043h.814c.021 0 .043.021.043.043v1.493Zm2.306-1.067h-1.662v-.426a.684.684 0 0 0-.687-.68h-.056v-1.645l-.003-.024c0-.01 0-.018-.003-.029a.306.306 0 0 0-.035-.106.314.314 0 0 0-.075-.082l-.024-.018-.021-.016-4.661-2.661a.322.322 0 0 0-.324 0l-4.659 2.66-.019.017a.303.303 0 0 0-.096.1.295.295 0 0 0-.035.103l-.002.03c0 .007-.003.015-.003.023v1.645h-.096a.684.684 0 0 0-.688.68v.426H.947c-.16 0-.297-.161-.297-.35v-3.2c0-2.693 2.136-4.885 4.758-4.885h5.855c1.897 0 3.644 1.202 4.383 3l-.268.841c-.005.019-.018.04-.05.04l-.956.008a.695.695 0 0 0-.401 1.263l.778.55c.022.017.03.038.022.064l-.292.909a.68.68 0 0 0 .257.775.703.703 0 0 0 .407.133.72.72 0 0 0 .42-.14l.46-.342v.988c0 .19-.136.349-.297.349h-.008Zm2.612-3.85-.77.567a.691.691 0 0 0-.247.778l.302.9c.006.019.008.048-.021.067-.021.015-.04.015-.062 0l-.776-.554a.697.697 0 0 0-.42-.13h-.01a.709.709 0 0 0-.396.138l-.768.57c-.02.015-.04.015-.062 0-.021-.016-.027-.035-.019-.064l.292-.91a.686.686 0 0 0-.262-.774l-.776-.548c-.03-.021-.024-.05-.019-.066.005-.019.019-.04.05-.04l.956-.008a.696.696 0 0 0 .661-.487l.29-.911a.049.049 0 0 1 .05-.04c.016 0 .037.006.045.037l.3.903a.71.71 0 0 0 .672.477l.952-.013c.024 0 .043.01.051.034.008.027 0 .05-.021.066l.008.008Z" fill="url(#a)"/><defs><linearGradient id="a" x1="1.109" y1="0" x2="33.059" y2=".621" gradientUnits="userSpaceOnUse"><stop stop-color="#11AE88"/><stop offset="1" stop-color="#2A84EE"/></linearGradient></defs></svg>