<svg width="26" height="20" fill="none" xmlns="http://www.w3.org/2000/svg"><path d="M24.865 2.118h-1.197V.59a.37.37 0 0 0-.261-.353c-.157-.05-3.887-1.156-8.27 1.881h-5.04C5.713-.92 1.985.188 1.828.237a.37.37 0 0 0-.26.353v1.528h-1.2a.37.37 0 0 0-.369.37v15.488a.371.371 0 0 0 .37.37h9.889a2.509 2.509 0 0 0 4.716 0h9.89a.37.37 0 0 0 .37-.37V2.49a.37.37 0 0 0-.37-.37ZM22.926.883V15.9c-1.474-.255-6.232-.9-9.938.629V4.999a15.328 15.328 0 0 1 2.476-2.208C18.939.338 22.029.703 22.926.883Zm-8.771 1.976c-.104.086-.206.174-.309.264l-.055.046c-.18.158-.357.323-.534.492l-.112.109c-.177.173-.354.35-.528.536a17.454 17.454 0 0 0-.64-.646 15.228 15.228 0 0 0-.534-.49l-.053-.046c-.103-.09-.207-.18-.31-.265h3.075ZM2.307.883C3.204.704 6.294.338 9.771 2.792A15.335 15.335 0 0 1 12.246 5v11.53a7.874 7.874 0 0 0-.36-.14l-.026-.01c-.24-.088-.483-.168-.73-.24l-.046-.012c-.24-.07-.482-.131-.726-.186l-.061-.013c-.24-.053-.482-.1-.723-.14l-.068-.01c-.24-.04-.48-.074-.719-.102l-.068-.007a17.86 17.86 0 0 0-.713-.068l-.065-.004c-.238-.017-.473-.03-.706-.038l-.054-.002a22.547 22.547 0 0 0-.696-.011h-.07c-.089 0-.176 0-.264.002h-.07c-.092 0-.184.003-.274.006h-.055l-.283.01h-.03c-.1.004-.198.01-.295.015h-.011c-.947.052-1.89.158-2.826.317V.883Zm22.186 16.723H14.7a.37.37 0 0 0-.36.286 1.767 1.767 0 0 1-3.444 0 .37.37 0 0 0-.361-.286H.739V2.859h.827v13.488a.371.371 0 0 0 .448.363c.06-.013 6.284-1.296 10.441.723l.012.004a.2.2 0 0 0 .02.008.336.336 0 0 0 .26 0l.02-.008.012-.004c4.156-2.018 10.379-.736 10.441-.723a.371.371 0 0 0 .448-.363V2.86h.826v14.747ZM4.745 11.003l2.034.613a.372.372 0 0 0 .477-.355V4.157a.37.37 0 0 0-.263-.355L4.959 3.19a.37.37 0 0 0-.477.354v7.104a.37.37 0 0 0 .264.355Zm.478-6.96 1.292.39v6.33l-1.292-.39v-6.33ZM21.31 9.936l-6.18 1.29a.37.37 0 0 0-.294.37l.043 2.187a.371.371 0 0 0 .44.357l6.137-1.181a.37.37 0 0 0 .3-.364v-2.296a.37.37 0 0 0-.446-.363Zm-.295 2.352-5.404 1.041-.029-1.44 5.433-1.134v1.533Zm-9.91 1.874a.37.37 0 0 1-.441.281l-5.893-1.31a.37.37 0 1 1 .161-.723l5.892 1.31a.37.37 0 0 1 .281.442Zm-2.951-2.136 2.48.77a.371.371 0 0 0 .48-.355V5.473a.37.37 0 0 0-.244-.348l-2.48-.906a.37.37 0 0 0-.498.348v7.104a.371.371 0 0 0 .262.354Zm.48-6.928 1.74.635v6.206l-1.74-.54V5.098Zm9.2 4.325a3.004 3.004 0 0 0 3.004-2.998.369.369 0 0 0-.37-.37h-2.263V3.79a.372.372 0 0 0-.37-.371 3 3 0 1 0 0 6.002v.001Zm-.37-5.231v2.232a.37.37 0 0 0 .37.37h2.232a2.26 2.26 0 1 1-2.602-2.602Zm1.29 1.652h2.632a.37.37 0 0 0 .37-.37 3.007 3.007 0 0 0-3.002-3.004.37.37 0 0 0-.37.37v2.633a.371.371 0 0 0 .37.37Zm.37-2.603a2.268 2.268 0 0 1 1.862 1.862h-1.862V3.24Z" fill="#000"/><path d="M24.865 2.118h-1.197V.59a.37.37 0 0 0-.261-.353c-.157-.05-3.887-1.156-8.27 1.881h-5.04C5.713-.92 1.985.188 1.828.237a.37.37 0 0 0-.26.353v1.528h-1.2a.37.37 0 0 0-.369.37v15.488a.371.371 0 0 0 .37.37h9.889a2.509 2.509 0 0 0 4.716 0h9.89a.37.37 0 0 0 .37-.37V2.49a.37.37 0 0 0-.37-.37ZM22.926.883V15.9c-1.474-.255-6.232-.9-9.938.629V4.999a15.328 15.328 0 0 1 2.476-2.208C18.939.338 22.029.703 22.926.883Zm-8.771 1.976c-.104.086-.206.174-.309.264l-.055.046c-.18.158-.357.323-.534.492l-.112.109c-.177.173-.354.35-.528.536a17.454 17.454 0 0 0-.64-.646 15.228 15.228 0 0 0-.534-.49l-.053-.046c-.103-.09-.207-.18-.31-.265h3.075ZM2.307.883C3.204.704 6.294.338 9.771 2.792A15.335 15.335 0 0 1 12.246 5v11.53a7.874 7.874 0 0 0-.36-.14l-.026-.01c-.24-.088-.483-.168-.73-.24l-.046-.012c-.24-.07-.482-.131-.726-.186l-.061-.013c-.24-.053-.482-.1-.723-.14l-.068-.01c-.24-.04-.48-.074-.719-.102l-.068-.007a17.86 17.86 0 0 0-.713-.068l-.065-.004c-.238-.017-.473-.03-.706-.038l-.054-.002a22.547 22.547 0 0 0-.696-.011h-.07c-.089 0-.176 0-.264.002h-.07c-.092 0-.184.003-.274.006h-.055l-.283.01h-.03c-.1.004-.198.01-.295.015h-.011c-.947.052-1.89.158-2.826.317V.883Zm22.186 16.723H14.7a.37.37 0 0 0-.36.286 1.767 1.767 0 0 1-3.444 0 .37.37 0 0 0-.361-.286H.739V2.859h.827v13.488a.371.371 0 0 0 .448.363c.06-.013 6.284-1.296 10.441.723l.012.004a.2.2 0 0 0 .02.008.336.336 0 0 0 .26 0l.02-.008.012-.004c4.156-2.018 10.379-.736 10.441-.723a.371.371 0 0 0 .448-.363V2.86h.826v14.747ZM4.745 11.003l2.034.613a.372.372 0 0 0 .477-.355V4.157a.37.37 0 0 0-.263-.355L4.959 3.19a.37.37 0 0 0-.477.354v7.104a.37.37 0 0 0 .264.355Zm.478-6.96 1.292.39v6.33l-1.292-.39v-6.33ZM21.31 9.936l-6.18 1.29a.37.37 0 0 0-.294.37l.043 2.187a.371.371 0 0 0 .44.357l6.137-1.181a.37.37 0 0 0 .3-.364v-2.296a.37.37 0 0 0-.446-.363Zm-.295 2.352-5.404 1.041-.029-1.44 5.433-1.134v1.533Zm-9.91 1.874a.37.37 0 0 1-.441.281l-5.893-1.31a.37.37 0 1 1 .161-.723l5.892 1.31a.37.37 0 0 1 .281.442Zm-2.951-2.136 2.48.77a.371.371 0 0 0 .48-.355V5.473a.37.37 0 0 0-.244-.348l-2.48-.906a.37.37 0 0 0-.498.348v7.104a.371.371 0 0 0 .262.354Zm.48-6.928 1.74.635v6.206l-1.74-.54V5.098Zm9.2 4.325a3.004 3.004 0 0 0 3.004-2.998.369.369 0 0 0-.37-.37h-2.263V3.79a.372.372 0 0 0-.37-.371 3 3 0 1 0 0 6.002v.001Zm-.37-5.231v2.232a.37.37 0 0 0 .37.37h2.232a2.26 2.26 0 1 1-2.602-2.602Zm1.29 1.652h2.632a.37.37 0 0 0 .37-.37 3.007 3.007 0 0 0-3.002-3.004.37.37 0 0 0-.37.37v2.633a.371.371 0 0 0 .37.37Zm.37-2.603a2.268 2.268 0 0 1 1.862 1.862h-1.862V3.24Z" fill="url(#a)"/><defs><linearGradient id="a" x1="1.473" y1="0" x2="43.879" y2="1.368" gradientUnits="userSpaceOnUse"><stop stop-color="#11AE88"/><stop offset="1" stop-color="#2A84EE"/></linearGradient></defs></svg>