<svg width="35" height="35" fill="none" xmlns="http://www.w3.org/2000/svg"><path d="M.157 7.546a.548.548 0 1 0 1.095 0v-6.45h6.451a.548.548 0 1 0 0-1.096H.704a.548.548 0 0 0-.547.548v6.998Z" fill="#000"/><path d="M.157 7.546a.548.548 0 1 0 1.095 0v-6.45h6.451a.548.548 0 1 0 0-1.096H.704a.548.548 0 0 0-.547.548v6.998Z" fill="url(#a)"/><path d="M33.75 7.546a.548.548 0 1 0 1.095 0V.548A.547.547 0 0 0 34.297 0h-6.999a.548.548 0 1 0 0 1.095h6.451v6.451Z" fill="#000"/><path d="M33.75 7.546a.548.548 0 1 0 1.095 0V.548A.547.547 0 0 0 34.297 0h-6.999a.548.548 0 1 0 0 1.095h6.451v6.451Z" fill="url(#b)"/><path d="M7.703 34.69H.704a.548.548 0 0 1-.547-.549v-6.998a.548.548 0 1 1 1.095 0v6.45h6.451a.548.548 0 1 1 0 1.096Z" fill="#000"/><path d="M7.703 34.69H.704a.548.548 0 0 1-.547-.549v-6.998a.548.548 0 1 1 1.095 0v6.45h6.451a.548.548 0 1 1 0 1.096Z" fill="url(#c)"/><path d="M27.298 34.69h7a.548.548 0 0 0 .547-.549v-6.998a.547.547 0 1 0-1.096 0v6.45H27.3a.548.548 0 1 0 0 1.096Z" fill="#000"/><path d="M27.298 34.69h7a.548.548 0 0 0 .547-.549v-6.998a.547.547 0 1 0-1.096 0v6.45H27.3a.548.548 0 1 0 0 1.096Z" fill="url(#d)"/><path d="M6.043 16a.548.548 0 0 1-.54-.643A12.096 12.096 0 0 1 9.03 8.74a12.085 12.085 0 0 1 6.75-3.304.548.548 0 0 1 .154 1.083 11.05 11.05 0 0 0-9.354 9.027.545.545 0 0 1-.537.453Z" fill="#000"/><path d="M6.043 16a.548.548 0 0 1-.54-.643A12.096 12.096 0 0 1 9.03 8.74a12.085 12.085 0 0 1 6.75-3.304.548.548 0 0 1 .154 1.083 11.05 11.05 0 0 0-9.354 9.027.545.545 0 0 1-.537.453Z" fill="url(#e)"/><path d="M15.935 29.586a.548.548 0 1 0 .14-1.087c-4.754-.61-8.657-4.331-9.494-9.049a.548.548 0 0 0-1.078.192 12.088 12.088 0 0 0 3.58 6.669 12.082 12.082 0 0 0 6.852 3.275Z" fill="#000"/><path d="M15.935 29.586a.548.548 0 1 0 .14-1.087c-4.754-.61-8.657-4.331-9.494-9.049a.548.548 0 0 0-1.078.192 12.088 12.088 0 0 0 3.58 6.669 12.082 12.082 0 0 0 6.852 3.275Z" fill="url(#f)"/><path d="M19.307 29.546a.548.548 0 0 1-.084-1.09 11.053 11.053 0 0 0 9.218-9.131.548.548 0 0 1 1.081.179 12.146 12.146 0 0 1-10.13 10.035.517.517 0 0 1-.085.007Z" fill="#000"/><path d="M19.307 29.546a.548.548 0 0 1-.084-1.09 11.053 11.053 0 0 0 9.218-9.131.548.548 0 0 1 1.081.179 12.146 12.146 0 0 1-10.13 10.035.517.517 0 0 1-.085.007Z" fill="url(#g)"/><path d="M28.407 15.476a.548.548 0 1 0 1.077-.2 12.188 12.188 0 0 0-10.062-9.811.548.548 0 0 0-.171 1.082 11.091 11.091 0 0 1 9.155 8.928Z" fill="#000"/><path d="M28.407 15.476a.548.548 0 1 0 1.077-.2 12.188 12.188 0 0 0-10.062-9.811.548.548 0 0 0-.171 1.082 11.091 11.091 0 0 1 9.155 8.928Z" fill="url(#h)"/><path d="M16.338 20.33c.049.014.1.02.15.02h.04a.55.55 0 0 0 .384-.2l3.764-4.606a.547.547 0 1 0-.848-.693L16.43 19.01l-1.433-1.31a.547.547 0 1 0-.739.809l1.86 1.7c.065.057.14.099.22.122Z" fill="#000"/><path d="M16.338 20.33c.049.014.1.02.15.02h.04a.55.55 0 0 0 .384-.2l3.764-4.606a.547.547 0 1 0-.848-.693L16.43 19.01l-1.433-1.31a.547.547 0 1 0-.739.809l1.86 1.7c.065.057.14.099.22.122Z" fill="url(#i)"/><path fill-rule="evenodd" clip-rule="evenodd" d="M24.773 18.048a7.305 7.305 0 0 1-6.725 6.726v9.678a.548.548 0 1 1-1.096 0v-9.678a7.305 7.305 0 0 1-6.725-6.726H.547a.548.548 0 1 1 0-1.096h9.68a7.305 7.305 0 0 1 6.725-6.724V.549a.548.548 0 1 1 1.096 0v9.68a7.305 7.305 0 0 1 6.725 6.724h9.68a.548.548 0 1 1 0 1.096h-9.68Zm-7.273 5.65a6.205 6.205 0 0 1-6.198-6.198 6.205 6.205 0 0 1 6.192-6.198h.011a6.205 6.205 0 0 1 6.193 6.198 6.205 6.205 0 0 1-6.198 6.198Z" fill="#000"/><path fill-rule="evenodd" clip-rule="evenodd" d="M24.773 18.048a7.305 7.305 0 0 1-6.725 6.726v9.678a.548.548 0 1 1-1.096 0v-9.678a7.305 7.305 0 0 1-6.725-6.726H.547a.548.548 0 1 1 0-1.096h9.68a7.305 7.305 0 0 1 6.725-6.724V.549a.548.548 0 1 1 1.096 0v9.68a7.305 7.305 0 0 1 6.725 6.724h9.68a.548.548 0 1 1 0 1.096h-9.68Zm-7.273 5.65a6.205 6.205 0 0 1-6.198-6.198 6.205 6.205 0 0 1 6.192-6.198h.011a6.205 6.205 0 0 1 6.193 6.198 6.205 6.205 0 0 1-6.198 6.198Z" fill="url(#j)"/><defs><linearGradient id="a" x1=".629" y1="0" x2="14.236" y2=".348" gradientUnits="userSpaceOnUse"><stop stop-color="#11AE88"/><stop offset="1" stop-color="#2A84EE"/></linearGradient><linearGradient id="b" x1="27.223" y1="0" x2="40.83" y2=".348" gradientUnits="userSpaceOnUse"><stop stop-color="#11AE88"/><stop offset="1" stop-color="#2A84EE"/></linearGradient><linearGradient id="c" x1=".629" y1="26.595" x2="14.236" y2="26.943" gradientUnits="userSpaceOnUse"><stop stop-color="#11AE88"/><stop offset="1" stop-color="#2A84EE"/></linearGradient><linearGradient id="d" x1="27.223" y1="26.595" x2="40.83" y2="26.943" gradientUnits="userSpaceOnUse"><stop stop-color="#11AE88"/><stop offset="1" stop-color="#2A84EE"/></linearGradient><linearGradient id="e" x1="6.131" y1="5.431" x2="24.47" y2="5.915" gradientUnits="userSpaceOnUse"><stop stop-color="#11AE88"/><stop offset="1" stop-color="#2A84EE"/></linearGradient><linearGradient id="f" x1="6.14" y1="18.998" x2="24.729" y2="19.494" gradientUnits="userSpaceOnUse"><stop stop-color="#11AE88"/><stop offset="1" stop-color="#2A84EE"/></linearGradient><linearGradient id="g" x1="19.388" y1="18.866" x2="37.493" y2="19.333" gradientUnits="userSpaceOnUse"><stop stop-color="#11AE88"/><stop offset="1" stop-color="#2A84EE"/></linearGradient><linearGradient id="h" x1="19.413" y1="5.458" x2="37.408" y2="5.928" gradientUnits="userSpaceOnUse"><stop stop-color="#11AE88"/><stop offset="1" stop-color="#2A84EE"/></linearGradient><linearGradient id="i" x1="14.472" y1="14.65" x2="25.765" y2="14.99" gradientUnits="userSpaceOnUse"><stop stop-color="#11AE88"/><stop offset="1" stop-color="#2A84EE"/></linearGradient><linearGradient id="j" x1="2.043" y1="0" x2="60.881" y2="1.504" gradientUnits="userSpaceOnUse"><stop stop-color="#11AE88"/><stop offset="1" stop-color="#2A84EE"/></linearGradient></defs></svg>