<svg width="48" height="48" fill="none" xmlns="http://www.w3.org/2000/svg"><path d="M46.396 22.401H21.451l3.68-3.664a1.6 1.6 0 0 0 0-2.272 1.602 1.602 0 0 0-2.272 0l-6.4 6.4a1.6 1.6 0 0 0-.337.528 1.6 1.6 0 0 0 0 1.216 1.6 1.6 0 0 0 .336.528l6.4 6.4a1.607 1.607 0 0 0 2.273-2.271L21.45 25.6h24.945a1.6 1.6 0 1 0 0-3.2Z" fill="#000"/><path d="M46.396 22.401H21.451l3.68-3.664a1.6 1.6 0 0 0 0-2.272 1.602 1.602 0 0 0-2.272 0l-6.4 6.4a1.6 1.6 0 0 0-.337.528 1.6 1.6 0 0 0 0 1.216 1.6 1.6 0 0 0 .336.528l6.4 6.4a1.607 1.607 0 0 0 2.273-2.271L21.45 25.6h24.945a1.6 1.6 0 1 0 0-3.2Z" fill="url(#a)"/><path d="M23.995 48.003A24.146 24.146 0 0 0 47.02 30.818a1.6 1.6 0 0 0-1.088-2.016 1.6 1.6 0 0 0-1.984 1.088 20.801 20.801 0 1 1 0-11.809 1.6 1.6 0 0 0 2.542.83 1.6 1.6 0 0 0 .53-1.71 24 24 0 1 0-23.025 30.802Z" fill="#000"/><path d="M23.995 48.003A24.146 24.146 0 0 0 47.02 30.818a1.6 1.6 0 0 0-1.088-2.016 1.6 1.6 0 0 0-1.984 1.088 20.801 20.801 0 1 1 0-11.809 1.6 1.6 0 0 0 2.542.83 1.6 1.6 0 0 0 .53-1.71 24 24 0 1 0-23.025 30.802Z" fill="url(#b)"/><defs><linearGradient id="a" x1="46.129" y1="32.008" x2="-7.551" y2="29.268" gradientUnits="userSpaceOnUse"><stop stop-color="#11AE88"/><stop offset="1" stop-color="#2A84EE"/></linearGradient><linearGradient id="b" x1="44.344" y1="48.003" x2="-34.824" y2="46.018" gradientUnits="userSpaceOnUse"><stop stop-color="#11AE88"/><stop offset="1" stop-color="#2A84EE"/></linearGradient></defs></svg>