<svg width="26" height="26" fill="none" xmlns="http://www.w3.org/2000/svg"><path d="M25 13c0 6.627-5.373 12-12 12S1 19.627 1 13 6.373 1 13 1s12 5.373 12 12Z" stroke="#2A84EE" stroke-width="2"/><path d="M17.5 12.063 16.035 10.5l-3.037 2.995L9.965 10.5 8.5 12.063l3.768 3.716.73.721.734-.721 3.768-3.716Z" fill="#000"/><path d="M17.5 12.063 16.035 10.5l-3.037 2.995L9.965 10.5 8.5 12.063l3.768 3.716.73.721.734-.721 3.768-3.716Z" fill="url(#a)"/><path d="M17.5 12.063 16.035 10.5l-3.037 2.995L9.965 10.5 8.5 12.063l3.768 3.716.73.721.734-.721 3.768-3.716Z" fill="#2A84EE"/><defs><linearGradient id="a" x1="17.5" y1="10.85" x2="17.328" y2="20.94" gradientUnits="userSpaceOnUse"><stop stop-color="#11AE88"/><stop offset="1" stop-color="#2A84EE"/></linearGradient></defs></svg>