<svg width="48" height="48" fill="none" xmlns="http://www.w3.org/2000/svg"><path d="M1.6 25.602h24.945l-3.68 3.664a1.6 1.6 0 0 0 0 2.272 1.6 1.6 0 0 0 2.273 0l6.4-6.4a1.61 1.61 0 0 0 .336-.528 1.6 1.6 0 0 0 0-1.216 1.601 1.601 0 0 0-.336-.528l-6.4-6.4a1.607 1.607 0 0 0-2.273 2.271l3.68 3.665H1.6a1.6 1.6 0 0 0 0 3.2Z" fill="#000"/><path d="M1.6 25.602h24.945l-3.68 3.664a1.6 1.6 0 0 0 0 2.272 1.6 1.6 0 0 0 2.273 0l6.4-6.4a1.61 1.61 0 0 0 .336-.528 1.6 1.6 0 0 0 0-1.216 1.601 1.601 0 0 0-.336-.528l-6.4-6.4a1.607 1.607 0 0 0-2.273 2.271l3.68 3.665H1.6a1.6 1.6 0 0 0 0 3.2Z" fill="url(#a)"/><path d="M24.001 0A24.146 24.146 0 0 0 .976 17.185a1.6 1.6 0 0 0 1.088 2.016 1.6 1.6 0 0 0 1.984-1.088 20.801 20.801 0 1 1 0 11.809 1.6 1.6 0 0 0-2.542-.83 1.599 1.599 0 0 0-.53 1.71A24.001 24.001 0 1 0 24.001 0Z" fill="#000"/><path d="M24.001 0A24.146 24.146 0 0 0 .976 17.185a1.6 1.6 0 0 0 1.088 2.016 1.6 1.6 0 0 0 1.984-1.088 20.801 20.801 0 1 1 0 11.809 1.6 1.6 0 0 0-2.542-.83 1.599 1.599 0 0 0-.53 1.71A24.001 24.001 0 1 0 24.001 0Z" fill="url(#b)"/><defs><linearGradient id="a" x1="1.867" y1="15.995" x2="55.547" y2="18.735" gradientUnits="userSpaceOnUse"><stop stop-color="#11AE88"/><stop offset="1" stop-color="#2A84EE"/></linearGradient><linearGradient id="b" x1="3.652" y1="0" x2="82.82" y2="1.985" gradientUnits="userSpaceOnUse"><stop stop-color="#11AE88"/><stop offset="1" stop-color="#2A84EE"/></linearGradient></defs></svg>