<svg width="26" height="26" fill="none" xmlns="http://www.w3.org/2000/svg"><path d="M25 13c0 6.627-5.373 12-12 12S1 19.627 1 13 6.373 1 13 1s12 5.373 12 12Z" stroke="#2A84EE" stroke-width="2"/><path d="M8.5 14.937 9.965 16.5l3.037-2.995 3.033 2.995 1.465-1.563-3.768-3.716-.73-.721-.734.721L8.5 14.937Z" fill="#000"/><path d="M8.5 14.937 9.965 16.5l3.037-2.995 3.033 2.995 1.465-1.563-3.768-3.716-.73-.721-.734.721L8.5 14.937Z" fill="url(#a)"/><path d="M8.5 14.937 9.965 16.5l3.037-2.995 3.033 2.995 1.465-1.563-3.768-3.716-.73-.721-.734.721L8.5 14.937Z" fill="#2A84EE"/><defs><linearGradient id="a" x1="8.5" y1="16.15" x2="8.672" y2="6.06" gradientUnits="userSpaceOnUse"><stop stop-color="#11AE88"/><stop offset="1" stop-color="#2A84EE"/></linearGradient></defs></svg>