<svg height="auto" viewBox="0 0 2000 1000" xmlns="http://www.w3.org/2000/svg"><path d="M0 1000h80V363.418H0Zm100 0h80V406.98h-80Zm100 0h80V445.045h-80Zm100 0h80V519.238h-80Zm100 0h80V206.636h-80Zm100 0h80V605.049h-80Zm100 0h80V567.395h-80Zm100 0h80V698.19h-80Zm100 0h80V693.705h-80Zm100 0h80V286.817h-80Zm100 0h80V381.047h-80Zm100 0h80V518.92h-80Zm100 0h80V399.092h-80Zm100 0h80V761.635h-80Zm100 0h80V191.883h-80Zm100 0h80V537.841h-80Zm100 0h80V674.571h-80Zm100 0h80V198.644h-80Zm100 0h80V459.032h-80Zm100 0h80V417.054h-80Z" fill="#444cf7"/></svg>