<svg height="auto" viewBox="0 0 2000 1000" xmlns="http://www.w3.org/2000/svg"><path d="M0 1000h80V26.069H0Zm100 0h80V39.26h-80Zm100 0h80V59.412h-80Zm100 0h80V98.796h-80Zm100 0h80V197.004h-80Zm100 0h80V154.877h-80Zm100 0h80V170.228h-80Zm100 0h80V323.781h-80Zm100 0h80V321.545h-80Zm100 0h80V403.532h-80Zm100 0h80V306.633h-80Zm100 0h80V531.754h-80Zm100 0h80V578.91h-80Zm100 0h80V637.666h-80Zm100 0h80V723.289h-80Zm100 0h80V515.906h-80Zm100 0h80V678.959h-80Zm100 0h80V687.957h-80Zm100 0h80V577.552h-80Zm100 0h80V883.69h-80Z" fill="#444cf7"/></svg>