<svg height="auto" viewBox="0 0 2000 1000" xmlns="http://www.w3.org/2000/svg"><path d="M0 996.354c21-8.318 63-27.88 105-41.593 42-13.714 63-10.824 105-26.976 42-16.151 63-27.194 105-53.783 42-26.588 63-71.446 105-79.158 42-7.713 63 61.731 105 40.596 42-21.136 63-105.284 105-146.273 42-40.99 63-50.398 105-58.675 42-8.277 63 33.075 105 17.29 42-15.785 63-74.873 105-96.215s63 13.923 105-10.495c42-24.417 63-116.168 105-111.59 42 4.577 63 105.444 105 134.477s63 35.353 105 10.688c42-24.664 63-70.168 105-134.011 42-63.843 63-139.466 105-185.205 42-45.739 63-63.988 105-43.491s63 171.963 105 145.974c42-25.988 63-238.372 105-275.917 42-37.545 84 70.554 105 88.193l5 829.81H0Z" fill="#444cf71a"/><path d="M0 996.354c21-8.318 63-27.88 105-41.593 42-13.714 63-10.824 105-26.976 42-16.151 63-27.194 105-53.783 42-26.588 63-71.446 105-79.158 42-7.713 63 61.731 105 40.596 42-21.136 63-105.284 105-146.273 42-40.99 63-50.398 105-58.675 42-8.277 63 33.075 105 17.29 42-15.785 63-74.873 105-96.215s63 13.923 105-10.495c42-24.417 63-116.168 105-111.59 42 4.577 63 105.444 105 134.477s63 35.353 105 10.688c42-24.664 63-70.168 105-134.011 42-63.843 63-139.466 105-185.205 42-45.739 63-63.988 105-43.491s63 171.963 105 145.974c42-25.988 63-238.372 105-275.917 42-37.545 84 70.554 105 88.193" fill="none" stroke="#444cf7" stroke-width="4"/><g fill="#444cf7"><circle cy="996.354" r="8"/><circle cx="105" cy="954.761" r="8"/><circle cx="210" cy="927.785" r="8"/><circle cx="315" cy="874.002" r="8"/><circle cx="420" cy="794.844" r="8"/><circle cx="525" cy="835.44" r="8"/><circle cx="630" cy="689.167" r="8"/><circle cx="735" cy="630.492" r="8"/><circle cx="840" cy="647.782" r="8"/><circle cx="945" cy="551.567" r="8"/><circle cx="1050" cy="541.072" r="8"/><circle cx="1155" cy="429.482" r="8"/><circle cx="1260" cy="563.959" r="8"/><circle cx="1365" cy="574.647" r="8"/><circle cx="1470" cy="440.636" r="8"/><circle cx="1575" cy="255.431" r="8"/><circle cx="1680" cy="211.94" r="8"/><circle cx="1785" cy="357.914" r="8"/><circle cx="1890" cy="81.997" r="8"/><circle cx="1995" cy="170.19" r="8"/></g></svg>