<svg height="auto" viewBox="0 0 1600 300" xmlns="http://www.w3.org/2000/svg"><path d="M0 68.064c16.8 2.739 50.4-7.877 84 13.695 33.6 21.571 50.4 96.819 84 94.163 33.6-2.655 50.4-97.127 84-107.44 33.6-10.312 50.4 23.974 84 55.877 33.6 31.904 50.4 122.272 84 103.642 33.6-18.63 50.4-178.543 84-196.795 33.6-18.251 50.4 99.87 84 105.536 33.6 5.667 50.4-61.88 84-77.204 33.6-15.324 50.4-16.102 84 .585s50.4 58.255 84 82.85c33.6 24.596 50.4 29.926 84 40.126s50.4 26.425 84 10.875 50.4-86.245 84-88.625c33.6-2.38 50.4 77.57 84 76.725 33.6-.846 50.4-63.481 84-80.952 33.6-17.472 50.4-2.532 84-6.404s50.4-17.163 84-12.955 50.4 30.437 84 33.996c33.6 3.559 67.2-12.96 84-16.2L1600 300H0Z" fill="#444cf71a"/><path d="M0 68.064c16.8 2.739 50.4-7.877 84 13.695 33.6 21.571 50.4 96.819 84 94.163 33.6-2.655 50.4-97.127 84-107.44 33.6-10.312 50.4 23.974 84 55.877 33.6 31.904 50.4 122.272 84 103.642 33.6-18.63 50.4-178.543 84-196.795 33.6-18.251 50.4 99.87 84 105.536 33.6 5.667 50.4-61.88 84-77.204 33.6-15.324 50.4-16.102 84 .585s50.4 58.255 84 82.85c33.6 24.596 50.4 29.926 84 40.126s50.4 26.425 84 10.875 50.4-86.245 84-88.625c33.6-2.38 50.4 77.57 84 76.725 33.6-.846 50.4-63.481 84-80.952 33.6-17.472 50.4-2.532 84-6.404s50.4-17.163 84-12.955 50.4 30.437 84 33.996c33.6 3.559 67.2-12.96 84-16.2" fill="none" stroke="#444cf7" stroke-width="4"/><g fill="#444cf7"><circle cy="68.064" r="8"/><circle cx="84" cy="81.759" r="8"/><circle cx="168" cy="175.922" r="8"/><circle cx="252" cy="68.482" r="8"/><circle cx="336" cy="124.359" r="8"/><circle cx="420" cy="228.001" r="8"/><circle cx="504" cy="31.206" r="8"/><circle cx="588" cy="136.742" r="8"/><circle cx="672" cy="59.538" r="8"/><circle cx="756" cy="60.123" r="8"/><circle cx="840" cy="142.973" r="8"/><circle cx="924" cy="183.099" r="8"/><circle cx="1008" cy="193.974" r="8"/><circle cx="1092" cy="105.349" r="8"/><circle cx="1176" cy="182.074" r="8"/><circle cx="1260" cy="101.122" r="8"/><circle cx="1344" cy="94.718" r="8"/><circle cx="1428" cy="81.763" r="8"/><circle cx="1512" cy="115.759" r="8"/><circle cx="1596" cy="99.558" r="8"/></g></svg>