<svg height="auto" viewBox="0 0 2000 1000" xmlns="http://www.w3.org/2000/svg"><path d="M0 26.069c21 2.638 63 6.522 105 13.19 42 6.669 63 8.245 105 20.153 42 11.907 63 11.865 105 39.384 42 27.518 63 86.992 105 98.208 42 11.216 63-36.772 105-42.127 42-5.355 63-18.43 105 15.351 42 33.78 63 123.29 105 153.553 42 30.263 63-18.186 105-2.236s63 84.97 105 81.987c42-2.982 63-122.543 105-96.899 42 25.645 63 170.666 105 225.121 42 54.456 63 25.973 105 47.156 42 21.182 63 29.88 105 58.756 42 28.875 63 109.975 105 85.623 42-24.352 63-198.517 105-207.383 42-8.866 63 128.643 105 163.053s63 29.28 105 8.998c42-20.281 63-149.551 105-110.405 42 39.147 84 244.91 105 306.138l5 116.31H0Z" fill="#444cf71a"/><path d="M0 26.069c21 2.638 63 6.522 105 13.19 42 6.669 63 8.245 105 20.153 42 11.907 63 11.865 105 39.384 42 27.518 63 86.992 105 98.208 42 11.216 63-36.772 105-42.127 42-5.355 63-18.43 105 15.351 42 33.78 63 123.29 105 153.553 42 30.263 63-18.186 105-2.236s63 84.97 105 81.987c42-2.982 63-122.543 105-96.899 42 25.645 63 170.666 105 225.121 42 54.456 63 25.973 105 47.156 42 21.182 63 29.88 105 58.756 42 28.875 63 109.975 105 85.623 42-24.352 63-198.517 105-207.383 42-8.866 63 128.643 105 163.053s63 29.28 105 8.998c42-20.281 63-149.551 105-110.405 42 39.147 84 244.91 105 306.138" fill="none" stroke="#444cf7" stroke-width="4"/><g fill="#444cf7"><circle cy="26.069" r="8"/><circle cx="105" cy="39.259" r="8"/><circle cx="210" cy="59.412" r="8"/><circle cx="315" cy="98.796" r="8"/><circle cx="420" cy="197.004" r="8"/><circle cx="525" cy="154.877" r="8"/><circle cx="630" cy="170.228" r="8"/><circle cx="735" cy="323.781" r="8"/><circle cx="840" cy="321.545" r="8"/><circle cx="945" cy="403.532" r="8"/><circle cx="1050" cy="306.633" r="8"/><circle cx="1155" cy="531.754" r="8"/><circle cx="1260" cy="578.91" r="8"/><circle cx="1365" cy="637.666" r="8"/><circle cx="1470" cy="723.289" r="8"/><circle cx="1575" cy="515.906" r="8"/><circle cx="1680" cy="678.959" r="8"/><circle cx="1785" cy="687.957" r="8"/><circle cx="1890" cy="577.552" r="8"/><circle cx="1995" cy="883.69" r="8"/></g></svg>