<svg height="auto" viewBox="0 0 2000 1000" xmlns="http://www.w3.org/2000/svg"><path d="M0 1000h80v-12.863H0Zm100 0h80v-47.416h-80Zm100 0h80V895.383h-80Zm100 0h80V854.987h-80Zm100 0h80V840.944h-80Zm100 0h80V746.124h-80Zm100 0h80V806.863h-80Zm100 0h80V640.693h-80Zm100 0h80V603.943h-80Zm100 0h80V676.714h-80Zm100 0h80V497.538h-80Zm100 0h80V624.558h-80Zm100 0h80V410.647h-80Zm100 0h80V373.406h-80Zm100 0h80V313.41h-80Zm100 0h80V530.145h-80Zm100 0h80V289.73h-80Zm100 0h80V355.39h-80Zm100 0h80V58.908h-80Zm100 0h80V230.954h-80Z" fill="#444cf7"/></svg>