<svg width="20" height="20" fill="none" xmlns="http://www.w3.org/2000/svg"><path fill-rule="evenodd" clip-rule="evenodd" d="M10 20c5.523 0 10-4.477 10-10S15.523 0 10 0 0 4.477 0 10s4.477 10 10 10Zm0-1.818a8.182 8.182 0 1 0 0-16.364 8.182 8.182 0 0 0 0 16.364Zm-.877-7.13L7.195 9.123 5.909 10.41l3.214 3.214.965-.964 4.554-4.555-1.285-1.286-4.234 4.234Z" fill="#000"/><path fill-rule="evenodd" clip-rule="evenodd" d="M10 20c5.523 0 10-4.477 10-10S15.523 0 10 0 0 4.477 0 10s4.477 10 10 10Zm0-1.818a8.182 8.182 0 1 0 0-16.364 8.182 8.182 0 0 0 0 16.364Zm-.877-7.13L7.195 9.123 5.909 10.41l3.214 3.214.965-.964 4.554-4.555-1.285-1.286-4.234 4.234Z" fill="#2A84EE"/></svg>