<svg width="36" height="42" fill="none" xmlns="http://www.w3.org/2000/svg"><path d="M36 12.667a3.319 3.319 0 0 0-1.334-2.65v-2.96L27.61 0H1.333v10.017A3.318 3.318 0 0 0 0 12.667a3.32 3.32 0 0 0 1.333 2.649v26.017h33.333V15.316A3.318 3.318 0 0 0 36 12.666ZM28 2.276l4.39 4.39H28v-4.39ZM2.667 1.333h24V8h6.666v1.4a3.33 3.33 0 0 0-.667-.067h-1.333A3.34 3.34 0 0 0 28.067 12H26.6a3.34 3.34 0 0 0-3.266-2.667H22A3.34 3.34 0 0 0 18.734 12h-1.468A3.339 3.339 0 0 0 14 9.333h-1.333A3.34 3.34 0 0 0 9.4 12H7.933a3.339 3.339 0 0 0-3.266-2.667H3.333a3.33 3.33 0 0 0-.666.068V1.333Zm22.543 12a1.997 1.997 0 0 1-1.877 1.333H22a1.998 1.998 0 0 1-1.878-1.333h1.211V12h-1.21A1.997 1.997 0 0 1 22 10.667h1.333c.868 0 1.601.559 1.877 1.333H24v1.333h1.21Zm-9.333 0A1.997 1.997 0 0 1 14 14.666h-1.333a1.998 1.998 0 0 1-1.878-1.333H12V12h-1.21a1.997 1.997 0 0 1 1.878-1.333H14c.868 0 1.601.559 1.877 1.333h-1.21v1.333h1.21ZM3.333 10.667h1.334c.868 0 1.6.559 1.877 1.333h-1.21v1.333h1.21a1.997 1.997 0 0 1-1.877 1.333H3.333c-1.102 0-2-.897-2-2 0-1.102.898-2 2-2Zm30 29.333H2.667V15.932c.215.044.438.068.666.068h1.334a3.34 3.34 0 0 0 3.266-2.667H9.4A3.34 3.34 0 0 0 12.667 16H14a3.34 3.34 0 0 0 3.266-2.667h1.468A3.34 3.34 0 0 0 22 16h1.333a3.34 3.34 0 0 0 3.266-2.667h1.468A3.34 3.34 0 0 0 31.333 16h1.333c.228 0 .452-.024.667-.068V40Zm-.667-25.334h-1.333a1.997 1.997 0 0 1-1.877-1.333h1.21V12h-1.21a1.997 1.997 0 0 1 1.877-1.333h1.333c1.103 0 2 .897 2 2 0 1.102-.897 2-2 2Z" fill="#000"/><path d="M36 12.667a3.319 3.319 0 0 0-1.334-2.65v-2.96L27.61 0H1.333v10.017A3.318 3.318 0 0 0 0 12.667a3.32 3.32 0 0 0 1.333 2.649v26.017h33.333V15.316A3.318 3.318 0 0 0 36 12.666ZM28 2.276l4.39 4.39H28v-4.39ZM2.667 1.333h24V8h6.666v1.4a3.33 3.33 0 0 0-.667-.067h-1.333A3.34 3.34 0 0 0 28.067 12H26.6a3.34 3.34 0 0 0-3.266-2.667H22A3.34 3.34 0 0 0 18.734 12h-1.468A3.339 3.339 0 0 0 14 9.333h-1.333A3.34 3.34 0 0 0 9.4 12H7.933a3.339 3.339 0 0 0-3.266-2.667H3.333a3.33 3.33 0 0 0-.666.068V1.333Zm22.543 12a1.997 1.997 0 0 1-1.877 1.333H22a1.998 1.998 0 0 1-1.878-1.333h1.211V12h-1.21A1.997 1.997 0 0 1 22 10.667h1.333c.868 0 1.601.559 1.877 1.333H24v1.333h1.21Zm-9.333 0A1.997 1.997 0 0 1 14 14.666h-1.333a1.998 1.998 0 0 1-1.878-1.333H12V12h-1.21a1.997 1.997 0 0 1 1.878-1.333H14c.868 0 1.601.559 1.877 1.333h-1.21v1.333h1.21ZM3.333 10.667h1.334c.868 0 1.6.559 1.877 1.333h-1.21v1.333h1.21a1.997 1.997 0 0 1-1.877 1.333H3.333c-1.102 0-2-.897-2-2 0-1.102.898-2 2-2Zm30 29.333H2.667V15.932c.215.044.438.068.666.068h1.334a3.34 3.34 0 0 0 3.266-2.667H9.4A3.34 3.34 0 0 0 12.667 16H14a3.34 3.34 0 0 0 3.266-2.667h1.468A3.34 3.34 0 0 0 22 16h1.333a3.34 3.34 0 0 0 3.266-2.667h1.468A3.34 3.34 0 0 0 31.333 16h1.333c.228 0 .452-.024.667-.068V40Zm-.667-25.334h-1.333a1.997 1.997 0 0 1-1.877-1.333h1.21V12h-1.21a1.997 1.997 0 0 1 1.877-1.333h1.333c1.103 0 2 .897 2 2 0 1.102-.897 2-2 2Z" fill="url(#a)"/><path d="M24 25.456v-2.123c0-3.308-2.692-6-6-6s-6 2.692-6 6v2.123a1.997 1.997 0 0 0-1.334 1.877v9.333c0 1.103.898 2 2 2h10.667c1.103 0 2-.897 2-2v-9.333c0-.868-.56-1.601-1.333-1.877Zm-6-6.79a4.672 4.672 0 0 1 4.666 4.667v2h-9.333v-2A4.672 4.672 0 0 1 18 18.667Zm6 18c0 .368-.3.667-.667.667H12.666a.668.668 0 0 1-.666-.667v-9.333c0-.367.299-.666.666-.666h10.667c.367 0 .667.299.667.666v9.333Z" fill="#000"/><path d="M24 25.456v-2.123c0-3.308-2.692-6-6-6s-6 2.692-6 6v2.123a1.997 1.997 0 0 0-1.334 1.877v9.333c0 1.103.898 2 2 2h10.667c1.103 0 2-.897 2-2v-9.333c0-.868-.56-1.601-1.333-1.877Zm-6-6.79a4.672 4.672 0 0 1 4.666 4.667v2h-9.333v-2A4.672 4.672 0 0 1 18 18.667Zm6 18c0 .368-.3.667-.667.667H12.666a.668.668 0 0 1-.666-.667v-9.333c0-.367.299-.666.666-.666h10.667c.367 0 .667.299.667.666v9.333Z" fill="url(#b)"/><path d="M18 28c-1.103 0-2 .897-2 2 0 .868.56 1.601 1.333 1.877V36h1.334v-4.123A1.997 1.997 0 0 0 20 30c0-1.103-.898-2-2-2Zm0 2.667a.668.668 0 0 1 0-1.334.668.668 0 0 1 0 1.334Z" fill="#000"/><path d="M18 28c-1.103 0-2 .897-2 2 0 .868.56 1.601 1.333 1.877V36h1.334v-4.123A1.997 1.997 0 0 0 20 30c0-1.103-.898-2-2-2Zm0 2.667a.668.668 0 0 1 0-1.334.668.668 0 0 1 0 1.334Z" fill="url(#c)"/><path d="M25.333 2.667H4V4h21.333V2.667Z" fill="#000"/><path d="M25.333 2.667H4V4h21.333V2.667Z" fill="url(#d)"/><path d="M22.666 5.333H4v1.333h18.666V5.333Z" fill="#000"/><path d="M22.666 5.333H4v1.333h18.666V5.333Z" fill="url(#e)"/><path d="M25.334 5.333H24v1.333h1.334V5.333Z" fill="#000"/><path d="M25.334 5.333H24v1.333h1.334V5.333Z" fill="url(#f)"/><defs><linearGradient id="a" x1="2.101" y1="0" x2="62.629" y2="1.347" gradientUnits="userSpaceOnUse"><stop stop-color="#11AE88"/><stop offset="1" stop-color="#2A84EE"/></linearGradient><linearGradient id="b" x1="11.522" y1="17.333" x2="36.187" y2="17.767" gradientUnits="userSpaceOnUse"><stop stop-color="#11AE88"/><stop offset="1" stop-color="#2A84EE"/></linearGradient><linearGradient id="c" x1="16.233" y1="28" x2="22.961" y2="28.086" gradientUnits="userSpaceOnUse"><stop stop-color="#11AE88"/><stop offset="1" stop-color="#2A84EE"/></linearGradient><linearGradient id="d" x1="5.245" y1="2.667" x2="35.99" y2="15.24" gradientUnits="userSpaceOnUse"><stop stop-color="#11AE88"/><stop offset="1" stop-color="#2A84EE"/></linearGradient><linearGradient id="e" x1="5.089" y1="5.333" x2="32.926" y2="15.294" gradientUnits="userSpaceOnUse"><stop stop-color="#11AE88"/><stop offset="1" stop-color="#2A84EE"/></linearGradient><linearGradient id="f" x1="24.078" y1="5.333" x2="26.32" y2="5.39" gradientUnits="userSpaceOnUse"><stop stop-color="#11AE88"/><stop offset="1" stop-color="#2A84EE"/></linearGradient></defs></svg>