<svg width="113" height="73" fill="none" xmlns="http://www.w3.org/2000/svg"><path d="M51.33 25.676c0 14.243-21.81 37.108-29.144 44.98-2.82 2.998-7.52 2.998-10.34.186l-.189-.187c-2.632-2.624-2.632-6.934-.188-9.745 3.197-3.186 6.017-6.747 8.65-10.12C8.836 48.164 0 37.857 0 25.675 0 11.62 11.47 0 25.759 0c14.29 0 25.57 11.432 25.57 25.676ZM87.052 0c-14.1 0-25.757 11.432-25.757 25.676 0 12.37 8.836 22.677 20.494 25.113-2.82 3.561-5.64 6.935-8.65 10.12-2.632 2.812-2.444 6.935.189 9.746l.188.188c2.82 2.998 7.52 2.81 10.34-.188C91.19 62.971 113 39.92 113 25.675 112.812 11.433 101.343 0 87.053 0Z" fill="#F5FBFF"/></svg>