<svg width="61" height="60" fill="none" xmlns="http://www.w3.org/2000/svg"><mask id="a" style="mask-type:luminance" maskUnits="userSpaceOnUse" x="4" y="3" width="54" height="54"><path d="M4.256 30.215c0 14.706 11.92 26.627 26.626 26.627 14.705 0 26.626-11.921 26.626-26.627 0-14.705-11.92-26.626-26.626-26.626-14.705 0-26.626 11.921-26.626 26.626Z" fill="#fff"/></mask><g mask="url(#a)"><path d="M4.255 30.215c0 14.705 11.921 26.626 26.626 26.626 14.706 0 26.627-11.92 26.627-26.626C57.508 15.51 45.587 3.59 30.88 3.59c-14.705 0-26.626 11.92-26.626 26.626Z" fill="url(#b)"/></g><mask id="c" style="mask-type:luminance" maskUnits="userSpaceOnUse" x="0" y="0" width="61" height="60"><path d="M.662 0h60.245v60H.662V0Z" fill="#fff"/></mask><g mask="url(#c)"><path d="m22.274 32.162 3.16 8.743s.394.818.817.818c.423 0 6.713-6.544 6.713-6.544l6.995-13.51-17.572 8.236-.113 2.257Z" fill="#C8DAEA"/></g><mask id="d" style="mask-type:luminance" maskUnits="userSpaceOnUse" x="0" y="0" width="61" height="60"><path d="M.662 0h60.245v60H.662V0Z" fill="#fff"/></mask><g mask="url(#d)"><path d="m26.464 34.403-.607 6.445s-.254 1.975 1.72 0a54.734 54.734 0 0 1 3.865-3.497" fill="#A9C6D8"/></g><mask id="e" style="mask-type:luminance" maskUnits="userSpaceOnUse" x="0" y="0" width="61" height="60"><path d="M.662 0h60.245v60H.662V0Z" fill="#fff"/></mask><g mask="url(#e)"><path d="m22.333 32.473-6.497-2.118s-.776-.314-.527-1.029c.052-.147.155-.273.465-.489 1.44-1.003 26.65-10.065 26.65-10.065s.712-.24 1.133-.08c.192.073.315.155.418.456.038.11.06.342.057.573-.003.167-.023.322-.038.564-.153 2.478-4.748 20.967-4.748 20.967s-.274 1.082-1.26 1.119c-.358.013-.794-.06-1.316-.508-1.932-1.662-8.613-6.152-10.089-7.14-.084-.055-.107-.127-.121-.198-.02-.104.09-.233.09-.233s11.633-10.34 11.942-11.425c.024-.085-.066-.126-.188-.09-.773.285-14.166 8.742-15.644 9.676-.087.055-.329.02-.329.02" fill="#fff"/></g><defs><linearGradient id="b" x1="30.881" y1="56.841" x2="30.881" y2="3.589" gradientUnits="userSpaceOnUse"><stop stop-color="#1D93D2"/><stop offset="1" stop-color="#38B0E3"/></linearGradient></defs></svg>