<svg width="53" height="54" fill="none" xmlns="http://www.w3.org/2000/svg"><circle cx="26.215" cy="26.96" r="22.469" fill="#fff"/><path d="M26.214.745C11.736.745 0 12.481 0 26.96c0 14.478 11.736 26.215 26.214 26.215 14.478 0 26.215-11.737 26.215-26.215S40.691.745 26.213.745Zm14.089 36.162c-1.12.7-5.665.908-6.766.109-.603-.439-1.155-.987-1.68-1.51-.366-.365-.783-.542-1.098-.938-.257-.325-.434-.707-.705-1.028-.457-.537-1.16-.994-1.717-.338-.838.988.132 2.927-.986 3.665-.375.248-.753.32-1.221.284l-1.038.047c-.61.012-1.575.018-2.268-.107-.774-.14-1.413-.563-2.112-.873-1.328-.589-2.593-1.391-3.555-2.502-2.62-3.027-6.139-7.19-7.506-10.995-.28-.782-1.023-2.331-.32-3.002.958-.696 5.658-.891 6.39.184.298.438.486 1.077.697 1.573.262.618.404 1.2.814 1.747.363.485.63.972.911 1.504.315.597.613 1.17.996 1.718.26.374.948 1.117 1.383 1.173 1.06.135.995-2.442.916-3.072a12.158 12.158 0 0 1-.075-1.865c.017-.524.064-1.264-.247-1.692-.506-.698-1.635-.176-1.723-1.115.186-.266.147-.502 1.392-.912.98-.322 1.613-.312 2.26-.26 1.317.105 2.714-.252 3.986.176 1.215.409 1.027 2.136.986 3.17-.055 1.413.004 2.792 0 4.226-.001.652-.027 1.288.769 1.235.746-.05.822-.678 1.178-1.196.495-.722.95-1.455 1.455-2.174.68-.973.885-2.066 1.525-3.063.229-.356.426-1.115.778-1.396.267-.215.774-.103 1.098-.103h.768c.588 0 1.188-.004 1.792.017.87.03 1.844-.17 2.707-.048 3.722.525-4.679 8.483-4.242 9.904.302.982 2.219 2.078 2.91 2.882.919 1.07 3.746 3.198 1.548 4.575Z" fill="#4C75A3"/></svg>