<svg width="53" height="54" fill="none" xmlns="http://www.w3.org/2000/svg"><path fill-rule="evenodd" clip-rule="evenodd" d="M26.406 53.174c14.477 0 26.214-11.737 26.214-26.215C52.62 12.482 40.883.745 26.406.745 11.928.745.19 12.482.19 26.96s11.737 26.215 26.215 26.215Z" fill="#FF0002"/><path fill-rule="evenodd" clip-rule="evenodd" d="m22.797 31.524-.001-9.89 9.444 4.962-9.443 4.928ZM43.532 19.92s-.341-2.425-1.389-3.493c-1.33-1.403-2.819-1.41-3.502-1.49-4.89-.357-12.227-.357-12.227-.357h-.016s-7.337 0-12.228.356c-.683.082-2.172.088-3.502 1.49-1.048 1.069-1.389 3.494-1.389 3.494s-.35 2.85-.35 5.697v2.671c0 2.85.35 5.697.35 5.697s.341 2.426 1.389 3.494c1.33 1.402 3.076 1.358 3.854 1.505 2.796.27 11.884.354 11.884.354s7.344-.011 12.235-.368c.683-.082 2.173-.089 3.502-1.491 1.048-1.068 1.39-3.494 1.39-3.494s.349-2.848.349-5.697v-2.67c0-2.849-.35-5.698-.35-5.698Z" fill="#fff"/></svg>